#!OML:ASF F:\VICON\USERDATA\INSTALL\rory3\rory3.ASF
:FULLY-SPECIFIED
:DEGREES
144
root 1.5037686890374347 17.950229777740216 55.44699334624869 -3.25495944267559 2.01652130579758 -4.174933445690396
lfemur -13.934678951328724 -2.2153287206283303 -17.05924685333571
ltibia 52.5817578409949
lfoot -10.451965537808604 0.7364533911762963
ltoes -16.162750071237554
rfemur -10.308001089744673 -0.02768579636821178 27.634869340042066
rtibia 35.95943111737839
rfoot -14.965849521305623 -11.750016431974847
rtoes -4.123308624104168
lowerback 10.004067305314834 -0.574925924751841 1.7748203630949269
upperback -0.3572628613529267 0.14498735247253752 2.032124469353838
thorax -6.129483203923608 0.1324426796710014 0.9600236959346173
lowerneck -16.583296998435465 -3.936011166458706 -1.5227817353647528
upperneck 21.187691356560286 -5.503541712292864 1.4836706319228543
head 9.558331226526168 -2.44896681570352 0.03131445232694874
lclavicle -2.5032484129348344e-15 -2.7348113131173753e-15
lhumerus -29.52800391823772 1.7434201767275361 82.12798327968814
lradius 24.61054545413657
lwrist 10.782202522681102
lhand -29.949022014057864 17.866854990667857
lfingers nan
lthumb -2.7739662019595084 48.69118284981848
rclavicle -2.632855704896208e-15 -2.8145752760278023e-15
rhumerus -32.47702930562642 -21.86935626539025 -75.91236309942127
rradius 33.36780740651353
rwrist 1.6364509704565338
rhand -17.61770247954782 22.237856049050833
rfingers nan
rthumb 8.665976636916447 -7.454361185304027
145
root 1.5256493862908043 17.96616504385841 56.351675688125695 -3.217064030889436 2.5402626734074607 -3.5897736819495862
lfemur -14.430778287236643 -2.7108605393319642 -18.304968600494796
ltibia 49.59727759718605
lfoot -10.97730120339357 0.9013976138552704
ltoes -16.312336012863156
rfemur -9.840829637171751 -0.5799002827863462 26.73569274242429
rtibia 36.41029165181699
rfoot -14.003537695124322 -11.366880147184032
rtoes -3.910004973446897
lowerback 9.907535732877612 -0.5918092352321137 1.4424487808626865
upperback -0.3638709390896939 0.038098620599945454 1.8754118003320657
thorax -6.080919346015557 0.05918656697593461 0.8366867151957796
lowerneck -16.500412226375378 -3.952702382822336 -1.558448626526514
upperneck 21.283193925488685 -5.5389551373659245 1.5359628558272171
head 9.590365494987434 -2.461299568070085 0.04525009381289943
lclavicle -2.5027219008888157e-15 -2.7347229812991516e-15
lhumerus -29.481885771198236 1.877320215618961 82.17308786407935
lradius 24.694003593013132
lwrist 10.873506458351578
lhand -29.870918841433664 18.064445669512644
lfingers nan
lthumb -2.7815725250433694 48.67391477447481
rclavicle -2.627049643303146e-15 -2.8115969226227278e-15
rhumerus -32.34457044054655 -21.886913073398237 -75.82258268208132
rradius 33.37270668340592
rwrist 1.4865942609756737
rhand -17.63960339291823 22.208218575767344
rfingers nan
rthumb 8.643899679878574 -7.50517975518729
146
root 1.5009556433306683 17.958657856808433 54.638874971373234 -3.345146210196546 2.645224230076039 -3.5248902237204143
lfemur -14.381517069150515 -2.9862220264161277 -18.76436518986169
ltibia 45.86481718286393
lfoot -10.98427827264657 1.0926502524406563
ltoes -17.193361916138436
rfemur -9.802722681650543 -0.6684268899942554 26.598406926747717
rtibia 37.50215877318071
rfoot -12.796094320895094 -10.980320652471821
rtoes -3.373485373169845
lowerback 9.926942420415559 -0.5238852181976852 1.4273081063027901
upperback -0.3834040208778153 0.06840028715044921 1.7722330585431683
thorax -6.083060164594859 0.05214458977799852 0.6645771563731294
lowerneck -16.443408217163576 -3.959353177930507 -1.5828373723186537
upperneck 21.3558523425608 -5.558723718201582 1.5989597060820253
head 9.614409693069112 -2.467527145080046 0.06624050180303745
lclavicle -2.5031766206429548e-15 -2.7353244048639e-15
lhumerus -29.504464018864738 1.8140095022382337 82.17105575611261
lradius 24.820423720279557
lwrist 10.982467119608625
lhand -29.977925129812835 17.808246832677835
lfingers nan
lthumb -2.8140882650818133 48.591850269101656
rclavicle -2.6210496081120325e-15 -2.8090831397638333e-15
rhumerus -32.18839067531449 -21.845502691403752 -75.77650105399654
rradius 33.39417269142257
rwrist 1.3082854832493598
rhand -17.620211594763475 22.262690158836055
rfingers nan
rthumb 8.638413787116683 -7.490045953836075
147
root 1.5235899071164667 17.97112679252684 57.577645557860684 -3.2857223043777632 3.053481661797224 -2.725126030344031
lfemur -13.814416832743298 -3.258140416706077 -19.82942150436607
ltibia 41.55530255529385
lfoot -10.909057634097513 0.9826293914410691
ltoes -17.679838281300277
rfemur -9.953864507729858 -0.7910241107240719 25.71089654652209
rtibia 38.90311411655429
rfoot -11.660992221436421 -10.783555791389494
rtoes -2.6011846793013893
lowerback 9.929437530760541 -0.6348581838874885 0.8074555439245421
upperback -0.3815730415288823 -0.23238983172468347 1.609851306502046
thorax -6.075947569769466 -0.07372388279725076 0.866478999085009
lowerneck -16.424287116562972 -3.9572240324412675 -1.594339753418084
upperneck 21.3964109805797 -5.564119211764874 1.6711550762688696
head 9.629098379356375 -2.467784817989968 0.09318337397939819
lclavicle -2.5032646325109272e-15 -2.7357161204312057e-15
lhumerus -29.55020188549061 1.588422330173775 82.12509063058384
lradius 24.991035799413172
lwrist 10.893331885253755
lhand -29.873179202041023 18.010295311895135
lfingers nan
lthumb -2.8026549822525726 48.56375152280764
rclavicle -2.6181466771917167e-15 -2.808673272813645e-15
rhumerus -31.993997077904854 -21.719733363395992 -75.77305743096534
rradius 33.43456094504644
rwrist 1.4403189650016768
rhand -17.620422143665742 22.300554463469506
rfingers nan
rthumb 8.62869375841559 -7.4549290966943325
148
root 1.488659556746251 17.95753122781125 55.29448093262656 -3.5093666235940773 2.787590825699139 -2.6094286917964182
lfemur -12.796962156830718 -3.313530237025813 -20.251499574804036
ltibia 37.17535334790225
lfoot -11.328152810076523 -0.448695264890572
ltoes -16.387875747949533
rfemur -10.68425885722126 -0.7522531516169915 25.585144204973307
rtibia 40.78021638734026
rfoot -10.820448845847897 -10.825109320730908
rtoes -1.7243362915388132
lowerback 9.988007840995973 -0.6163649943453872 0.5561980316922793
upperback -0.3582907035408089 -0.323111291704622 1.508133025116172
thorax -6.0514299934058045 -0.0981023001985232 1.0461176878457161
lowerneck -16.426731171693362 -3.9542229392167108 -1.6063567609702099
upperneck 21.39798109201696 -5.566112862811211 1.7574333279283922
head 9.631943900141467 -2.4652687582890933 0.126136251015874
lclavicle -2.5099073703062223e-15 -2.738847014099022e-15
lhumerus -29.580999340397547 1.3703460951767732 82.06271882367103
lradius 25.168891064444132
lwrist 10.704773809483715
lhand -29.92160721190112 17.82278885199173
lfingers nan
lthumb -2.782683007461982 48.49574400587533
rclavicle -2.6188891615737353e-15 -2.8071572098485953e-15
rhumerus -31.690976543245046 -21.489735950516103 -75.7775425597795
rradius 33.46925960643989
rwrist 1.721774974965954
rhand -17.604460681566724 22.375003120641104
rfingers nan
rthumb 8.630090872132351 -7.375262762947518
149
root 1.4610929547632887 17.941628616258694 54.64808301489368 -3.565586932347286 2.638575875893885 -2.705337143923973
lfemur -11.727601709920474 -3.302739725456398 -20.344169109746097
ltibia 33.282185239605525
lfoot -11.598888302624324 -0.8880289984428975
ltoes -16.39387431189946
rfemur -11.824174119333865 -0.6863989041256198 25.632206034201328
rtibia 43.09850403689306
rfoot -10.2731798871753 -10.910952607831714
rtoes -0.8833073134859797
lowerback 10.02759647432665 -0.644871906270696 0.45297840486084134
upperback -0.34010347087829723 -0.4186020845065475 1.4951001050721828
thorax -6.035216665599595 -0.12275442065692335 1.2193913629125455
lowerneck -16.448938644243743 -3.9465828444916675 -1.6178412930256436
upperneck 21.368281999361766 -5.559554128383275 1.848551168137595
head 9.625530758061082 -2.458588422495298 0.16201856138067994
lclavicle -2.5149820781565706e-15 -2.741034298746008e-15
lhumerus -29.577011653755417 1.2902513327147478 82.00313234717358
lradius 25.30850167685741
lwrist 10.69872178088411
lhand -29.79994662203222 18.128044765484933
lfingers nan
lthumb -2.759137188659271 48.52980514219736
rclavicle -2.6201509718984206e-15 -2.806074469347455e-15
rhumerus -31.315912148293446 -21.201471412124633 -75.76804275301663
rradius 33.47217173517958
rwrist 2.259746733857468
rhand -17.62302254300792 22.393726764951005
rfingers nan
rthumb 8.612730465560556 -7.335194156254047
